<svg xmlns="http://www.w3.org/2000/svg" viewBox="0 0 64 64"><title>Database</title><g id="Database"><path d="M31,13a1,1,0,0,0,2,0A1,1,0,0,0,31,13Z"/><path d="M36,14a1,1,0,0,0,0-2A1,1,0,0,0,36,14Z"/><path d="M28,12a1,1,0,0,0,0,2A1,1,0,0,0,28,12Z"/><path d="M32,20a1,1,0,0,0,0,2A1,1,0,0,0,32,20Z"/><path d="M36,20a1,1,0,0,0,0,2A1,1,0,0,0,36,20Z"/><path d="M28,20a1,1,0,0,0,0,2A1,1,0,0,0,28,20Z"/><path d="M31,29a1,1,0,0,0,2,0A1,1,0,0,0,31,29Z"/><path d="M36,30a1,1,0,0,0,0-2A1,1,0,0,0,36,30Z"/><path d="M28,28a1,1,0,0,0,0,2A1,1,0,0,0,28,28Z"/><path d="M61,54H60V18a4,4,0,0,0-4-4H49V5c0-6.65-34-6.66-34,0v9H8a4,4,0,0,0-4,4V54H3a3,3,0,0,0-3,3v2a5,5,0,0,0,5,5H59a5,5,0,0,0,5-5V57A3,3,0,0,0,61,54ZM47,29c0,.87-5.26,3-15,3s-15-2.13-15-3V23.54c6,3.25,24,3.26,30,0ZM32,43a1,1,0,0,1,0,2A1,1,0,0,1,32,43ZM47,21c0,.87-5.26,3-15,3s-15-2.13-15-3V15.54c6,3.25,24,3.26,30,0Zm0-8c0,.87-5.26,3-15,3s-15-2.13-15-3V7.54c6,3.25,24,3.26,30,0ZM15,29c0,2.81,5.63,4.15,11,4.69V37H16a1,1,0,0,0-1,1v3.18a3,3,0,1,0,2,0V39H27a1,1,0,0,0,1-1V33.86c1.06.07,2.07.11,3,.13v7.19a3,3,0,1,0,2,0V34c.93,0,1.94-.06,3-.13V38a1,1,0,0,0,1,1H47v2.18a3,3,0,1,0,2,0V38a1,1,0,0,0-1-1H38V33.69c5.37-.54,11-1.88,11-4.69V20h5V50H10V20h5Zm1,14a1,1,0,0,1,0,2A1,1,0,0,1,16,43Zm32,0a1,1,0,0,1,0,2A1,1,0,0,1,48,43ZM32,2c9.74,0,15,2.13,15,3S41.74,8,32,8,17,5.87,17,5,22.26,2,32,2ZM6,18a2,2,0,0,1,2-2h7v2H9a1,1,0,0,0-1,1V51a1,1,0,0,0,1,1H55a1,1,0,0,0,1-1V19a1,1,0,0,0-1-1H49V16h7a2,2,0,0,1,2,2V54H6ZM40.13,56l-.67,1H24.54l-.67-1ZM62,59a3,3,0,0,1-3,3H5a3,3,0,0,1-3-3V57a1,1,0,0,1,1-1H21.46l1.71,2.55c.42.64-.41.45,16.83.45.69,0,.74-.3,2.54-3H61a1,1,0,0,1,1,1Z"/></g></svg>