<svg xmlns="http://www.w3.org/2000/svg" viewBox="0 0 64 64"><title>Project Management</title><g id="Project_Management" data-name="Project Management"><path d="M49,43.33A5.67,5.67,0,1,0,54.67,49,5.68,5.68,0,0,0,49,43.33Zm0,9.34A3.67,3.67,0,1,1,52.67,49,3.68,3.68,0,0,1,49,52.67Z"/><path d="M63.12,52.54l-2.33-1.35a11.52,11.52,0,0,0,0-4.38l2.33-1.35a1,1,0,0,0,.37-1.36l-3-5.2a1,1,0,0,0-1.37-.36L58,39.18V16a5,5,0,0,0-5-5H42.84L41.73,4.93A6,6,0,0,0,35.83,0H22.17a6,6,0,0,0-5.9,4.93L15.16,11H5a5,5,0,0,0-5,5V50a5,5,0,0,0,5,5H35.14c3.25,5.63,2.24,5.33,6.07,3.12A12.19,12.19,0,0,0,45,60.31V63a1,1,0,0,0,1,1h6a1,1,0,0,0,1-1V60.31a12.19,12.19,0,0,0,3.79-2.19l2.33,1.34a1,1,0,0,0,1.37-.36l3-5.2A1,1,0,0,0,63.12,52.54ZM18.23,5.29A4,4,0,0,1,22.17,2H35.83a4,4,0,0,1,3.94,3.29l1,5.71H39.1l-.82-4.54a3,3,0,0,0-3-2.46H22.67a3,3,0,0,0-3,2.46L18.9,11H17.2ZM37.07,11H20.93l.75-4.18a1,1,0,0,1,1-.82H35.33a1,1,0,0,1,1,.82ZM2,16a3,3,0,0,1,3-3H53a3,3,0,0,1,3,3V27a3,3,0,0,1-3,3H33V27a1,1,0,0,0-1-1H26a1,1,0,0,0-1,1v3H5a3,3,0,0,1-3-3ZM27,28h4v4a2,2,0,0,1-4,0ZM2,50V31c1.83,1.39,1,1,23,1a4,4,0,0,0,8,0c21.64,0,21.18.36,23-1v8.3a12.12,12.12,0,0,0-3-1.58V35a1,1,0,0,0-1-1H46a1,1,0,0,0-1,1v2.69a12.19,12.19,0,0,0-3.79,2.19l-2.33-1.34a1,1,0,0,0-1.37.36c-4,6.91-4.22,5.65-.3,7.91a11.52,11.52,0,0,0,0,4.38c-2.55,1.47-2.54,1.38-2.73,1.81H5A3,3,0,0,1,2,50Zm57.26,7.23c-2.1-1.21-2.61-1.72-3.3-1.06C53,59,51,58.08,51,59.58V62H47c0-2.42.19-3.13-.73-3.39-3.94-1.11-4.13-3.34-5.43-2.59l-2.1,1.21-2-3.46c2.1-1.21,2.81-1.4,2.57-2.33a9.83,9.83,0,0,1,0-4.88c.25-1-.66-1.23-2.57-2.33l2-3.46L40.84,42c1.28.74,1.54-1.49,5.43-2.59.92-.26.73-1,.73-3.39h4v2.42c0,1.48,2.08.61,5,3.41.69.66,1.22.14,3.3-1.06l2,3.46C57.35,46.49,59,45.21,59,49s-1.67,2.5,2.26,4.77Z"/></g></svg>