<svg xmlns="http://www.w3.org/2000/svg" viewBox="0 0 64 64"><title>SEO</title><g id="SEO"><path d="M32,16A16,16,0,1,0,48,32,16,16,0,0,0,32,16Zm0,30A14,14,0,1,1,46,32,14,14,0,0,1,32,46Z"/><path d="M32,20A12,12,0,1,0,44,32,12,12,0,0,0,32,20Zm0,22A10,10,0,1,1,42,32,10,10,0,0,1,32,42Z"/><path d="M31,29h4a1,1,0,0,0,0-2H33V26a1,1,0,0,0-2,0v1a3,3,0,0,0,0,6h2a1,1,0,0,1,0,2H29a1,1,0,0,0,0,2h2v1a1,1,0,0,0,2,0V37a3,3,0,0,0,0-6H31A1,1,0,0,1,31,29Z"/><path d="M62.88,57.46,57.41,52l5.81-10.06a1,1,0,0,0-.37-1.37L58.34,38a27.33,27.33,0,0,0,0-11.94l4.51-2.6a1,1,0,0,0,.37-1.37l-7-12.12a1,1,0,0,0-1.37-.37l-4.52,2.61A27.1,27.1,0,0,0,40,6.21V1a1,1,0,0,0-1-1H25a1,1,0,0,0-1,1V6.21a27.1,27.1,0,0,0-10.33,6L9.15,9.57a1,1,0,0,0-1.37.37l-7,12.12a1,1,0,0,0,.37,1.37L5.66,26A27.33,27.33,0,0,0,5.66,38l-4.51,2.6a1,1,0,0,0-.37,1.37l7,12.12a1,1,0,0,0,1.37.37l4.52-2.61a27.1,27.1,0,0,0,10.33,6V63a1,1,0,0,0,1,1H39a1,1,0,0,0,1-1V57.79a26.88,26.88,0,0,0,8.17-4.21l9.29,9.3a3.83,3.83,0,0,0,5.42-5.42ZM38,57v5H26V57a1,1,0,0,0-.73-1,25,25,0,0,1-10.75-6.22,1,1,0,0,0-1.2-.15L9,52.19,3,41.81c7.43-4.3,4-1.1,4-9.81s3.45-5.51-4-9.81L9,11.81l4.3,2.48a1,1,0,0,0,1.2-.15A25,25,0,0,1,25.27,7.92,1,1,0,0,0,26,7V2H38V7a1,1,0,0,0,.73,1,25,25,0,0,1,10.75,6.22,1,1,0,0,0,1.2.15L55,11.81l6,10.38-4.29,2.48a1,1,0,0,0-.47,1.12,25.11,25.11,0,0,1,0,12.42,1,1,0,0,0,.47,1.12L61,41.81l-5,8.72-6.64-6.64C58.79,30.15,49,11,32,11A21,21,0,0,0,11,32c0,17,19.13,26.8,32.89,17.31l2.86,2.86C40.86,56.49,38,55.36,38,57Zm20.88,4.42L44.71,47.29a1,1,0,0,0-1.31-.09C31,56.5,13,47.72,13,32A19,19,0,0,1,32,13c15.72,0,24.5,18,15.2,30.4a1,1,0,0,0,.09,1.31C62.61,60,62,59.11,62,60.17A1.84,1.84,0,0,1,58.88,61.46Z"/></g></svg>